<svg width="512" height="512" viewBox="0 0 512 512" fill="none" xmlns="http://www.w3.org/2000/svg">
<g clip-path="url(#clip0_1_3)">
<path d="M512 39.92V472.08C511.979 482.661 507.766 492.802 500.284 500.284C492.802 507.766 482.661 511.979 472.08 512H39.84C29.2729 511.958 19.1519 507.736 11.6873 500.256C4.22269 492.777 0.0210499 482.647 0 472.08L0 39.92C0.0210499 29.3529 4.22269 19.2234 11.6873 11.7438C19.1519 4.2642 29.2729 0.0422476 39.84 0L472.08 0C482.661 0.0211408 492.802 4.23377 500.284 11.7156C507.766 19.1975 511.979 29.3391 512 39.92Z" fill="#1D1D1D"/>
<path d="M460.9 213L396.05 148.15L373.4 170.79L438.27 235.66C440.93 238.319 443.04 241.476 444.48 244.95C445.92 248.425 446.661 252.149 446.661 255.91C446.661 259.671 445.92 263.395 444.48 266.87C443.04 270.344 440.93 273.501 438.27 276.16L276.27 438.16C273.611 440.82 270.454 442.93 266.98 444.37C263.505 445.81 259.781 446.551 256.02 446.551C252.259 446.551 248.535 445.81 245.06 444.37C241.586 442.93 238.429 440.82 235.77 438.16L170.7 373.09L148 395.74L213.09 460.83C224.464 472.2 239.888 478.588 255.97 478.588C272.052 478.588 287.476 472.2 298.85 460.83L460.85 298.83C472.22 287.456 478.608 272.032 478.608 255.95C478.608 239.868 472.22 224.444 460.85 213.07L460.9 213Z" fill="#F36864"/>
<path d="M235.73 72.86C238.389 70.1998 241.546 68.0895 245.02 66.6497C248.495 65.21 252.219 64.4689 255.98 64.4689C259.741 64.4689 263.465 65.21 266.94 66.6497C270.414 68.0895 273.571 70.1998 276.23 72.86L341.41 138L364 115.41L298.86 50.23C287.486 38.8596 272.062 32.472 255.98 32.472C239.898 32.472 224.474 38.8596 213.1 50.23L148.47 114.86L171.09 137.49L235.73 72.86Z" fill="#5ABE5C"/>
<path d="M73.69 275.4C71.0295 272.74 68.919 269.583 67.4791 266.107C66.0392 262.632 65.2981 258.907 65.2981 255.145C65.2981 251.383 66.0392 247.658 67.4791 244.183C68.919 240.707 71.0295 237.55 73.69 234.89L138.69 169.89L116.06 147.26L51.06 212.26C39.6896 223.634 33.3021 239.058 33.3021 255.14C33.3021 271.222 39.6896 286.646 51.06 298.02L116 363L138.67 340.42L73.69 275.4Z" fill="#FEC547"/>
<path d="M406.87 105C402.572 100.706 396.745 98.2938 390.67 98.2938C384.595 98.2938 378.768 100.706 374.47 105L256.53 222.92L138.57 105C134.25 100.81 128.455 98.4871 122.437 98.533C116.419 98.5789 110.661 100.99 106.405 105.245C102.15 109.501 99.7389 115.259 99.693 121.277C99.6471 127.295 101.97 133.09 106.16 137.41L224.09 255.3L114.74 364.22L105.13 373.79C100.824 378.079 98.3984 383.902 98.3862 389.979C98.3802 392.988 98.9669 395.969 100.113 398.751C101.259 401.534 102.942 404.063 105.065 406.195C107.188 408.327 109.711 410.02 112.489 411.177C115.267 412.334 118.245 412.933 121.254 412.939C127.331 412.951 133.164 410.549 137.47 406.26L406.87 137.39C411.142 133.082 413.538 127.262 413.538 121.195C413.538 115.128 411.142 109.308 406.87 105Z" fill="#00364B"/>
</g>
<defs>
<clipPath id="clip0_1_3">
<rect width="512" height="512" fill="white"/>
</clipPath>
</defs>
</svg>

